<mxfile host="app.diagrams.net" agent="Mozilla/5.0 (Windows NT 10.0; Win64; x64) AppleWebKit/537.36 (KHTML, like Gecko) Chrome/128.0.0.0 Safari/537.36" version="24.7.12">
  <diagram name="Page-1" id="VnAFfXCWk7oT40Fd0yqq">
    <mxGraphModel dx="1134" dy="637" grid="0" gridSize="10" guides="1" tooltips="1" connect="1" arrows="1" fold="1" page="1" pageScale="1" pageWidth="850" pageHeight="1100" math="0" shadow="0">
      <root>
        <mxCell id="0" />
        <mxCell id="1" parent="0" />
        <mxCell id="cDCE_3dZ4grJuk51i2w8-24" value="" style="group" parent="1" vertex="1" connectable="0">
          <mxGeometry x="127" y="21" width="630" height="274" as="geometry" />
        </mxCell>
        <mxCell id="cDCE_3dZ4grJuk51i2w8-8" style="edgeStyle=orthogonalEdgeStyle;rounded=0;orthogonalLoop=1;jettySize=auto;html=1;" parent="cDCE_3dZ4grJuk51i2w8-24" source="cDCE_3dZ4grJuk51i2w8-1" edge="1">
          <mxGeometry relative="1" as="geometry">
            <mxPoint x="28.80950927734375" y="173.04763357979914" as="targetPoint" />
          </mxGeometry>
        </mxCell>
        <mxCell id="cDCE_3dZ4grJuk51i2w8-9" style="edgeStyle=orthogonalEdgeStyle;rounded=0;orthogonalLoop=1;jettySize=auto;html=1;" parent="cDCE_3dZ4grJuk51i2w8-24" source="cDCE_3dZ4grJuk51i2w8-1" edge="1">
          <mxGeometry relative="1" as="geometry">
            <mxPoint x="599.2857142857144" y="175.90477643694203" as="targetPoint" />
          </mxGeometry>
        </mxCell>
        <mxCell id="cDCE_3dZ4grJuk51i2w8-1" value="" style="html=1;verticalLabelPosition=bottom;align=center;labelBackgroundColor=#ffffff;verticalAlign=top;strokeWidth=2;strokeColor=#0080F0;shadow=0;dashed=0;shape=mxgraph.ios7.icons.user;" parent="cDCE_3dZ4grJuk51i2w8-24" vertex="1">
          <mxGeometry x="286" width="65" height="80" as="geometry" />
        </mxCell>
        <mxCell id="cDCE_3dZ4grJuk51i2w8-2" value="" style="verticalLabelPosition=bottom;shadow=0;dashed=0;align=center;html=1;verticalAlign=top;strokeWidth=1;shape=mxgraph.mockup.containers.userMale;strokeColor=#666666;strokeColor2=#008cff;" parent="cDCE_3dZ4grJuk51i2w8-24" vertex="1">
          <mxGeometry y="180" width="74" height="89" as="geometry" />
        </mxCell>
        <mxCell id="cDCE_3dZ4grJuk51i2w8-3" value="" style="verticalLabelPosition=bottom;shadow=0;dashed=0;align=center;html=1;verticalAlign=top;strokeWidth=1;shape=mxgraph.mockup.containers.userFemale;strokeColor=#666666;strokeColor2=#008cff;" parent="cDCE_3dZ4grJuk51i2w8-24" vertex="1">
          <mxGeometry x="107" y="180" width="81" height="90" as="geometry" />
        </mxCell>
        <mxCell id="cDCE_3dZ4grJuk51i2w8-4" value="" style="verticalLabelPosition=bottom;shadow=0;dashed=0;align=center;html=1;verticalAlign=top;strokeWidth=1;shape=mxgraph.mockup.containers.userFemale;strokeColor=#666666;strokeColor2=#008cff;" parent="cDCE_3dZ4grJuk51i2w8-24" vertex="1">
          <mxGeometry x="221" y="180" width="81" height="90" as="geometry" />
        </mxCell>
        <mxCell id="cDCE_3dZ4grJuk51i2w8-5" value="" style="verticalLabelPosition=bottom;shadow=0;dashed=0;align=center;html=1;verticalAlign=top;strokeWidth=1;shape=mxgraph.mockup.containers.userFemale;strokeColor=#666666;strokeColor2=#008cff;" parent="cDCE_3dZ4grJuk51i2w8-24" vertex="1">
          <mxGeometry x="335" y="180" width="81" height="90" as="geometry" />
        </mxCell>
        <mxCell id="cDCE_3dZ4grJuk51i2w8-6" value="" style="verticalLabelPosition=bottom;shadow=0;dashed=0;align=center;html=1;verticalAlign=top;strokeWidth=1;shape=mxgraph.mockup.containers.userMale;strokeColor=#666666;strokeColor2=#008cff;" parent="cDCE_3dZ4grJuk51i2w8-24" vertex="1">
          <mxGeometry x="449" y="180" width="74" height="89" as="geometry" />
        </mxCell>
        <mxCell id="cDCE_3dZ4grJuk51i2w8-7" value="" style="verticalLabelPosition=bottom;shadow=0;dashed=0;align=center;html=1;verticalAlign=top;strokeWidth=1;shape=mxgraph.mockup.containers.userMale;strokeColor=#666666;strokeColor2=#008cff;" parent="cDCE_3dZ4grJuk51i2w8-24" vertex="1">
          <mxGeometry x="556" y="185" width="74" height="89" as="geometry" />
        </mxCell>
        <mxCell id="Xq7kVfTsR78el6_ClKw2-56" value="" style="group" vertex="1" connectable="0" parent="1">
          <mxGeometry x="23" y="342" width="780" height="243" as="geometry" />
        </mxCell>
        <mxCell id="cDCE_3dZ4grJuk51i2w8-25" value="&lt;b&gt;&lt;font style=&quot;font-size: 13px;&quot;&gt;587b8b9&lt;/font&gt;&lt;/b&gt;" style="ellipse;whiteSpace=wrap;html=1;aspect=fixed;fillColor=#dae8fc;strokeColor=#6c8ebf;" parent="Xq7kVfTsR78el6_ClKw2-56" vertex="1">
          <mxGeometry y="34" width="68" height="68" as="geometry" />
        </mxCell>
        <mxCell id="cDCE_3dZ4grJuk51i2w8-39" value="&lt;b&gt;&lt;font style=&quot;font-size: 14px;&quot;&gt;karam-dosa&lt;/font&gt;&lt;/b&gt;" style="text;html=1;align=center;verticalAlign=middle;resizable=0;points=[];autosize=1;strokeColor=none;fillColor=none;" parent="Xq7kVfTsR78el6_ClKw2-56" vertex="1">
          <mxGeometry x="68" y="214" width="97" height="29" as="geometry" />
        </mxCell>
        <mxCell id="Xq7kVfTsR78el6_ClKw2-3" value="&lt;b&gt;&lt;font style=&quot;font-size: 14px;&quot;&gt;neyyi-karam-dosa&lt;/font&gt;&lt;/b&gt;" style="text;html=1;align=center;verticalAlign=middle;resizable=0;points=[];autosize=1;strokeColor=none;fillColor=none;" vertex="1" parent="Xq7kVfTsR78el6_ClKw2-56">
          <mxGeometry x="428" y="214" width="137" height="29" as="geometry" />
        </mxCell>
        <mxCell id="Xq7kVfTsR78el6_ClKw2-55" value="" style="group" vertex="1" connectable="0" parent="Xq7kVfTsR78el6_ClKw2-56">
          <mxGeometry x="8.5" width="771.5" height="208" as="geometry" />
        </mxCell>
        <mxCell id="cDCE_3dZ4grJuk51i2w8-41" style="edgeStyle=orthogonalEdgeStyle;rounded=0;orthogonalLoop=1;jettySize=auto;html=1;" parent="Xq7kVfTsR78el6_ClKw2-55" edge="1">
          <mxGeometry relative="1" as="geometry">
            <mxPoint x="59.5" y="172.5" as="targetPoint" />
            <mxPoint x="22.5" y="109" as="sourcePoint" />
            <Array as="points">
              <mxPoint x="22.5" y="172" />
            </Array>
          </mxGeometry>
        </mxCell>
        <mxCell id="cDCE_3dZ4grJuk51i2w8-33" value="&lt;b&gt;&lt;font style=&quot;font-size: 14px;&quot;&gt;main&lt;/font&gt;&lt;/b&gt;" style="text;html=1;align=center;verticalAlign=middle;resizable=0;points=[];autosize=1;strokeColor=none;fillColor=none;" parent="Xq7kVfTsR78el6_ClKw2-55" vertex="1">
          <mxGeometry width="51" height="29" as="geometry" />
        </mxCell>
        <mxCell id="Xq7kVfTsR78el6_ClKw2-16" value="" style="edgeStyle=orthogonalEdgeStyle;rounded=0;orthogonalLoop=1;jettySize=auto;html=1;" edge="1" parent="Xq7kVfTsR78el6_ClKw2-55" source="0krmC0e5cRMXf6Z9-hMA-3" target="Xq7kVfTsR78el6_ClKw2-15">
          <mxGeometry relative="1" as="geometry" />
        </mxCell>
        <mxCell id="0krmC0e5cRMXf6Z9-hMA-3" value="&lt;span style=&quot;font-size: 13px;&quot;&gt;&lt;b&gt;14f5301&lt;/b&gt;&lt;/span&gt;" style="ellipse;whiteSpace=wrap;html=1;aspect=fixed;fillColor=#dae8fc;strokeColor=#6c8ebf;" parent="Xq7kVfTsR78el6_ClKw2-55" vertex="1">
          <mxGeometry x="375.5" y="34" width="69" height="69" as="geometry" />
        </mxCell>
        <mxCell id="0krmC0e5cRMXf6Z9-hMA-7" value="&lt;b&gt;&lt;font style=&quot;font-size: 14px;&quot;&gt;merge commit&lt;/font&gt;&lt;/b&gt;" style="text;html=1;align=center;verticalAlign=middle;resizable=0;points=[];autosize=1;strokeColor=none;fillColor=none;" parent="Xq7kVfTsR78el6_ClKw2-55" vertex="1">
          <mxGeometry x="353" width="114" height="29" as="geometry" />
        </mxCell>
        <mxCell id="Xq7kVfTsR78el6_ClKw2-10" value="" style="group" vertex="1" connectable="0" parent="Xq7kVfTsR78el6_ClKw2-55">
          <mxGeometry x="453.5" y="140" width="318" height="68" as="geometry" />
        </mxCell>
        <mxCell id="Xq7kVfTsR78el6_ClKw2-2" value="" style="edgeStyle=orthogonalEdgeStyle;rounded=0;orthogonalLoop=1;jettySize=auto;html=1;" edge="1" parent="Xq7kVfTsR78el6_ClKw2-10" source="0krmC0e5cRMXf6Z9-hMA-8" target="Xq7kVfTsR78el6_ClKw2-1">
          <mxGeometry relative="1" as="geometry" />
        </mxCell>
        <mxCell id="0krmC0e5cRMXf6Z9-hMA-8" value="&lt;span style=&quot;font-size: 13px;&quot;&gt;&lt;b&gt;14f5301&lt;/b&gt;&lt;/span&gt;" style="ellipse;whiteSpace=wrap;html=1;aspect=fixed;fillColor=#f8cecc;strokeColor=#b85450;" parent="Xq7kVfTsR78el6_ClKw2-10" vertex="1">
          <mxGeometry width="68" height="68" as="geometry" />
        </mxCell>
        <mxCell id="Xq7kVfTsR78el6_ClKw2-5" value="" style="edgeStyle=orthogonalEdgeStyle;rounded=0;orthogonalLoop=1;jettySize=auto;html=1;" edge="1" parent="Xq7kVfTsR78el6_ClKw2-10" source="Xq7kVfTsR78el6_ClKw2-1" target="Xq7kVfTsR78el6_ClKw2-4">
          <mxGeometry relative="1" as="geometry" />
        </mxCell>
        <mxCell id="Xq7kVfTsR78el6_ClKw2-1" value="&lt;span style=&quot;font-size: 13px;&quot;&gt;&lt;b&gt;214d798&lt;/b&gt;&lt;/span&gt;" style="ellipse;whiteSpace=wrap;html=1;aspect=fixed;fillColor=#f8cecc;strokeColor=#b85450;" vertex="1" parent="Xq7kVfTsR78el6_ClKw2-10">
          <mxGeometry x="123" width="68" height="68" as="geometry" />
        </mxCell>
        <mxCell id="Xq7kVfTsR78el6_ClKw2-4" value="&lt;span style=&quot;font-size: 13px;&quot;&gt;&lt;b&gt;a215224&lt;/b&gt;&lt;/span&gt;" style="ellipse;whiteSpace=wrap;html=1;aspect=fixed;fillColor=#f8cecc;strokeColor=#b85450;" vertex="1" parent="Xq7kVfTsR78el6_ClKw2-10">
          <mxGeometry x="250" width="68" height="68" as="geometry" />
        </mxCell>
        <mxCell id="Xq7kVfTsR78el6_ClKw2-12" value="" style="group" vertex="1" connectable="0" parent="Xq7kVfTsR78el6_ClKw2-55">
          <mxGeometry x="66.5" y="140" width="295" height="68" as="geometry" />
        </mxCell>
        <mxCell id="cDCE_3dZ4grJuk51i2w8-43" value="" style="edgeStyle=orthogonalEdgeStyle;rounded=0;orthogonalLoop=1;jettySize=auto;html=1;" parent="Xq7kVfTsR78el6_ClKw2-12" source="cDCE_3dZ4grJuk51i2w8-38" target="cDCE_3dZ4grJuk51i2w8-42" edge="1">
          <mxGeometry relative="1" as="geometry" />
        </mxCell>
        <mxCell id="cDCE_3dZ4grJuk51i2w8-38" value="&lt;b&gt;&lt;font style=&quot;font-size: 13px;&quot;&gt;587b8b9&lt;/font&gt;&lt;/b&gt;" style="ellipse;whiteSpace=wrap;html=1;aspect=fixed;fillColor=#ffe6cc;strokeColor=#d79b00;" parent="Xq7kVfTsR78el6_ClKw2-12" vertex="1">
          <mxGeometry width="68" height="68" as="geometry" />
        </mxCell>
        <mxCell id="cDCE_3dZ4grJuk51i2w8-45" value="" style="edgeStyle=orthogonalEdgeStyle;rounded=0;orthogonalLoop=1;jettySize=auto;html=1;" parent="Xq7kVfTsR78el6_ClKw2-12" source="cDCE_3dZ4grJuk51i2w8-42" target="cDCE_3dZ4grJuk51i2w8-44" edge="1">
          <mxGeometry relative="1" as="geometry" />
        </mxCell>
        <mxCell id="cDCE_3dZ4grJuk51i2w8-42" value="&lt;span style=&quot;font-size: 13px;&quot;&gt;&lt;b&gt;467de17&lt;/b&gt;&lt;/span&gt;" style="ellipse;whiteSpace=wrap;html=1;aspect=fixed;fillColor=#ffe6cc;strokeColor=#d79b00;" parent="Xq7kVfTsR78el6_ClKw2-12" vertex="1">
          <mxGeometry x="113" width="68" height="68" as="geometry" />
        </mxCell>
        <mxCell id="cDCE_3dZ4grJuk51i2w8-44" value="&lt;span style=&quot;font-size: 13px;&quot;&gt;&lt;b&gt;2052f25&lt;/b&gt;&lt;/span&gt;" style="ellipse;whiteSpace=wrap;html=1;aspect=fixed;fillColor=#ffe6cc;strokeColor=#d79b00;" parent="Xq7kVfTsR78el6_ClKw2-12" vertex="1">
          <mxGeometry x="227" width="68" height="68" as="geometry" />
        </mxCell>
        <mxCell id="Xq7kVfTsR78el6_ClKw2-14" style="edgeStyle=orthogonalEdgeStyle;rounded=0;orthogonalLoop=1;jettySize=auto;html=1;entryX=0.322;entryY=0.999;entryDx=0;entryDy=0;entryPerimeter=0;" edge="1" parent="Xq7kVfTsR78el6_ClKw2-55" source="cDCE_3dZ4grJuk51i2w8-44" target="0krmC0e5cRMXf6Z9-hMA-3">
          <mxGeometry relative="1" as="geometry" />
        </mxCell>
        <mxCell id="Xq7kVfTsR78el6_ClKw2-18" value="" style="edgeStyle=orthogonalEdgeStyle;rounded=0;orthogonalLoop=1;jettySize=auto;html=1;" edge="1" parent="Xq7kVfTsR78el6_ClKw2-55" source="Xq7kVfTsR78el6_ClKw2-15" target="Xq7kVfTsR78el6_ClKw2-17">
          <mxGeometry relative="1" as="geometry" />
        </mxCell>
        <mxCell id="Xq7kVfTsR78el6_ClKw2-15" value="&lt;b style=&quot;font-size: 13px;&quot;&gt;85726444&lt;/b&gt;" style="ellipse;whiteSpace=wrap;html=1;aspect=fixed;fillColor=#dae8fc;strokeColor=#6c8ebf;" vertex="1" parent="Xq7kVfTsR78el6_ClKw2-55">
          <mxGeometry x="578" y="34" width="69" height="69" as="geometry" />
        </mxCell>
        <mxCell id="Xq7kVfTsR78el6_ClKw2-17" value="&lt;b style=&quot;font-size: 13px;&quot;&gt;3f45f5d&lt;/b&gt;" style="ellipse;whiteSpace=wrap;html=1;aspect=fixed;fillColor=#dae8fc;strokeColor=#6c8ebf;" vertex="1" parent="Xq7kVfTsR78el6_ClKw2-55">
          <mxGeometry x="702.5" y="34" width="69" height="69" as="geometry" />
        </mxCell>
        <mxCell id="Xq7kVfTsR78el6_ClKw2-19" style="edgeStyle=orthogonalEdgeStyle;rounded=0;orthogonalLoop=1;jettySize=auto;html=1;entryX=0.68;entryY=1.04;entryDx=0;entryDy=0;entryPerimeter=0;" edge="1" parent="Xq7kVfTsR78el6_ClKw2-55" source="0krmC0e5cRMXf6Z9-hMA-8" target="0krmC0e5cRMXf6Z9-hMA-3">
          <mxGeometry relative="1" as="geometry" />
        </mxCell>
        <mxCell id="0krmC0e5cRMXf6Z9-hMA-4" value="" style="edgeStyle=orthogonalEdgeStyle;rounded=0;orthogonalLoop=1;jettySize=auto;html=1;" parent="Xq7kVfTsR78el6_ClKw2-56" source="cDCE_3dZ4grJuk51i2w8-25" target="0krmC0e5cRMXf6Z9-hMA-3" edge="1">
          <mxGeometry relative="1" as="geometry" />
        </mxCell>
        <mxCell id="Xq7kVfTsR78el6_ClKw2-66" value="" style="group" vertex="1" connectable="0" parent="1">
          <mxGeometry x="24" y="662" width="643" height="403" as="geometry" />
        </mxCell>
        <mxCell id="Xq7kVfTsR78el6_ClKw2-50" value="&lt;font style=&quot;font-size: 14px;&quot;&gt;&lt;b&gt;main&lt;/b&gt;&lt;/font&gt;" style="text;html=1;align=center;verticalAlign=middle;resizable=0;points=[];autosize=1;strokeColor=none;fillColor=none;rotation=-90;fontStyle=0;container=0;" vertex="1" parent="Xq7kVfTsR78el6_ClKw2-66">
          <mxGeometry x="-10.999999999999998" y="239" width="51" height="29" as="geometry" />
        </mxCell>
        <mxCell id="Xq7kVfTsR78el6_ClKw2-73" value="" style="group" vertex="1" connectable="0" parent="Xq7kVfTsR78el6_ClKw2-66">
          <mxGeometry x="24" width="619" height="403" as="geometry" />
        </mxCell>
        <mxCell id="Xq7kVfTsR78el6_ClKw2-60" value="&lt;b style=&quot;font-size: 13px;&quot;&gt;298a621&lt;/b&gt;" style="ellipse;whiteSpace=wrap;html=1;aspect=fixed;fillColor=#d5e8d4;strokeColor=#82b366;fontStyle=0;container=0;" vertex="1" parent="Xq7kVfTsR78el6_ClKw2-73">
          <mxGeometry x="415" y="29" width="69" height="69" as="geometry" />
        </mxCell>
        <mxCell id="Xq7kVfTsR78el6_ClKw2-61" value="" style="edgeStyle=orthogonalEdgeStyle;rounded=0;orthogonalLoop=1;jettySize=auto;html=1;fontStyle=0" edge="1" parent="Xq7kVfTsR78el6_ClKw2-73" source="Xq7kVfTsR78el6_ClKw2-53" target="Xq7kVfTsR78el6_ClKw2-60">
          <mxGeometry relative="1" as="geometry" />
        </mxCell>
        <mxCell id="Xq7kVfTsR78el6_ClKw2-46" value="" style="edgeStyle=orthogonalEdgeStyle;rounded=0;orthogonalLoop=1;jettySize=auto;html=1;fontStyle=0" edge="1" parent="Xq7kVfTsR78el6_ClKw2-73" source="Xq7kVfTsR78el6_ClKw2-20" target="Xq7kVfTsR78el6_ClKw2-45">
          <mxGeometry relative="1" as="geometry" />
        </mxCell>
        <mxCell id="Xq7kVfTsR78el6_ClKw2-20" value="&lt;b style=&quot;font-size: 13px;&quot;&gt;3f45f5d&lt;/b&gt;" style="ellipse;whiteSpace=wrap;html=1;aspect=fixed;fillColor=#dae8fc;strokeColor=#6c8ebf;fontStyle=0;container=0;" vertex="1" parent="Xq7kVfTsR78el6_ClKw2-73">
          <mxGeometry y="219" width="69" height="69" as="geometry" />
        </mxCell>
        <mxCell id="Xq7kVfTsR78el6_ClKw2-25" value="" style="edgeStyle=orthogonalEdgeStyle;rounded=0;orthogonalLoop=1;jettySize=auto;html=1;fontStyle=0" edge="1" parent="Xq7kVfTsR78el6_ClKw2-73" source="Xq7kVfTsR78el6_ClKw2-21" target="Xq7kVfTsR78el6_ClKw2-24">
          <mxGeometry relative="1" as="geometry" />
        </mxCell>
        <mxCell id="Xq7kVfTsR78el6_ClKw2-21" value="&lt;b style=&quot;font-size: 13px;&quot;&gt;3f45f5d&lt;/b&gt;" style="ellipse;whiteSpace=wrap;html=1;aspect=fixed;fillColor=#e1d5e7;strokeColor=#9673a6;fontStyle=0;container=0;" vertex="1" parent="Xq7kVfTsR78el6_ClKw2-73">
          <mxGeometry x="76" y="300" width="69" height="69" as="geometry" />
        </mxCell>
        <mxCell id="Xq7kVfTsR78el6_ClKw2-23" style="edgeStyle=orthogonalEdgeStyle;rounded=0;orthogonalLoop=1;jettySize=auto;html=1;fontStyle=0" edge="1" parent="Xq7kVfTsR78el6_ClKw2-73">
          <mxGeometry relative="1" as="geometry">
            <mxPoint x="69" y="336.5" as="targetPoint" />
            <mxPoint x="32" y="291" as="sourcePoint" />
            <Array as="points">
              <mxPoint x="32" y="336" />
            </Array>
          </mxGeometry>
        </mxCell>
        <mxCell id="Xq7kVfTsR78el6_ClKw2-28" value="" style="edgeStyle=orthogonalEdgeStyle;rounded=0;orthogonalLoop=1;jettySize=auto;html=1;fontStyle=0" edge="1" parent="Xq7kVfTsR78el6_ClKw2-73" source="Xq7kVfTsR78el6_ClKw2-24" target="Xq7kVfTsR78el6_ClKw2-27">
          <mxGeometry relative="1" as="geometry" />
        </mxCell>
        <mxCell id="Xq7kVfTsR78el6_ClKw2-24" value="&lt;span style=&quot;font-size: 13px;&quot;&gt;&lt;b&gt;a394edc&lt;/b&gt;&lt;/span&gt;" style="ellipse;whiteSpace=wrap;html=1;aspect=fixed;fillColor=#e1d5e7;strokeColor=#9673a6;fontStyle=0;container=0;" vertex="1" parent="Xq7kVfTsR78el6_ClKw2-73">
          <mxGeometry x="189" y="300" width="69" height="69" as="geometry" />
        </mxCell>
        <mxCell id="Xq7kVfTsR78el6_ClKw2-26" value="&lt;b&gt;&lt;font style=&quot;font-size: 14px;&quot;&gt;egg-dosa&lt;/font&gt;&lt;/b&gt;" style="text;html=1;align=center;verticalAlign=middle;resizable=0;points=[];autosize=1;strokeColor=none;fillColor=none;fontStyle=0;container=0;" vertex="1" parent="Xq7kVfTsR78el6_ClKw2-73">
          <mxGeometry x="70.5" y="374" width="80" height="29" as="geometry" />
        </mxCell>
        <mxCell id="Xq7kVfTsR78el6_ClKw2-39" style="edgeStyle=orthogonalEdgeStyle;rounded=0;orthogonalLoop=1;jettySize=auto;html=1;strokeWidth=1;fontStyle=0" edge="1" parent="Xq7kVfTsR78el6_ClKw2-73">
          <mxGeometry relative="1" as="geometry">
            <mxPoint x="76" y="156" as="targetPoint" />
            <mxPoint x="30" y="216" as="sourcePoint" />
            <Array as="points">
              <mxPoint x="30" y="195" />
              <mxPoint x="30" y="154" />
            </Array>
          </mxGeometry>
        </mxCell>
        <mxCell id="Xq7kVfTsR78el6_ClKw2-27" value="&lt;span style=&quot;font-size: 13px;&quot;&gt;&lt;b&gt;d5d4d13&amp;nbsp;&lt;/b&gt;&lt;/span&gt;" style="ellipse;whiteSpace=wrap;html=1;aspect=fixed;fillColor=#e1d5e7;strokeColor=#9673a6;fontStyle=0;container=0;" vertex="1" parent="Xq7kVfTsR78el6_ClKw2-73">
          <mxGeometry x="302" y="300" width="69" height="69" as="geometry" />
        </mxCell>
        <mxCell id="Xq7kVfTsR78el6_ClKw2-42" value="" style="edgeStyle=orthogonalEdgeStyle;rounded=0;orthogonalLoop=1;jettySize=auto;html=1;fontStyle=0" edge="1" parent="Xq7kVfTsR78el6_ClKw2-73" source="Xq7kVfTsR78el6_ClKw2-29" target="Xq7kVfTsR78el6_ClKw2-41">
          <mxGeometry relative="1" as="geometry" />
        </mxCell>
        <mxCell id="Xq7kVfTsR78el6_ClKw2-29" value="&lt;b style=&quot;font-size: 13px;&quot;&gt;3f45f5d&lt;/b&gt;" style="ellipse;whiteSpace=wrap;html=1;aspect=fixed;fillColor=#d5e8d4;strokeColor=#82b366;fontStyle=0;container=0;" vertex="1" parent="Xq7kVfTsR78el6_ClKw2-73">
          <mxGeometry x="83" y="124" width="69" height="69" as="geometry" />
        </mxCell>
        <mxCell id="Xq7kVfTsR78el6_ClKw2-40" value="&lt;b&gt;&lt;font style=&quot;font-size: 14px;&quot;&gt;karam-egg-dosa&lt;/font&gt;&lt;/b&gt;" style="text;html=1;align=center;verticalAlign=middle;resizable=0;points=[];autosize=1;strokeColor=none;fillColor=none;fontStyle=0;container=0;" vertex="1" parent="Xq7kVfTsR78el6_ClKw2-73">
          <mxGeometry x="52" y="98" width="126" height="29" as="geometry" />
        </mxCell>
        <mxCell id="Xq7kVfTsR78el6_ClKw2-44" value="" style="edgeStyle=orthogonalEdgeStyle;rounded=0;orthogonalLoop=1;jettySize=auto;html=1;fontStyle=0" edge="1" parent="Xq7kVfTsR78el6_ClKw2-73" source="Xq7kVfTsR78el6_ClKw2-41" target="Xq7kVfTsR78el6_ClKw2-43">
          <mxGeometry relative="1" as="geometry" />
        </mxCell>
        <mxCell id="Xq7kVfTsR78el6_ClKw2-41" value="&lt;span style=&quot;font-size: 13px;&quot;&gt;&lt;b&gt;5f51811&lt;/b&gt;&lt;/span&gt;" style="ellipse;whiteSpace=wrap;html=1;aspect=fixed;fillColor=#d5e8d4;strokeColor=#82b366;fontStyle=0;container=0;" vertex="1" parent="Xq7kVfTsR78el6_ClKw2-73">
          <mxGeometry x="189" y="124" width="69" height="69" as="geometry" />
        </mxCell>
        <mxCell id="Xq7kVfTsR78el6_ClKw2-43" value="&lt;span style=&quot;font-size: 13px;&quot;&gt;&lt;b&gt;7f03963&lt;/b&gt;&lt;/span&gt;" style="ellipse;whiteSpace=wrap;html=1;aspect=fixed;fillColor=#d5e8d4;strokeColor=#82b366;fontStyle=0;container=0;" vertex="1" parent="Xq7kVfTsR78el6_ClKw2-73">
          <mxGeometry x="302" y="124" width="69" height="69" as="geometry" />
        </mxCell>
        <mxCell id="Xq7kVfTsR78el6_ClKw2-49" value="" style="edgeStyle=orthogonalEdgeStyle;rounded=0;orthogonalLoop=1;jettySize=auto;html=1;fontStyle=0" edge="1" parent="Xq7kVfTsR78el6_ClKw2-73" source="Xq7kVfTsR78el6_ClKw2-45" target="Xq7kVfTsR78el6_ClKw2-48">
          <mxGeometry relative="1" as="geometry" />
        </mxCell>
        <mxCell id="Xq7kVfTsR78el6_ClKw2-45" value="&lt;span style=&quot;font-size: 13px;&quot;&gt;&lt;b&gt;d2c90bb&lt;/b&gt;&lt;/span&gt;" style="ellipse;whiteSpace=wrap;html=1;aspect=fixed;fillColor=#dae8fc;strokeColor=#6c8ebf;fontStyle=0;container=0;" vertex="1" parent="Xq7kVfTsR78el6_ClKw2-73">
          <mxGeometry x="189" y="219" width="69" height="69" as="geometry" />
        </mxCell>
        <mxCell id="Xq7kVfTsR78el6_ClKw2-48" value="&lt;span style=&quot;font-size: 13px;&quot;&gt;&lt;b&gt;4322c8a&lt;/b&gt;&lt;/span&gt;" style="ellipse;whiteSpace=wrap;html=1;aspect=fixed;fillColor=#dae8fc;strokeColor=#6c8ebf;fontStyle=0;container=0;" vertex="1" parent="Xq7kVfTsR78el6_ClKw2-73">
          <mxGeometry x="302" y="219" width="69" height="69" as="geometry" />
        </mxCell>
        <mxCell id="Xq7kVfTsR78el6_ClKw2-51" style="edgeStyle=orthogonalEdgeStyle;rounded=0;orthogonalLoop=1;jettySize=auto;html=1;strokeWidth=1;fontStyle=0" edge="1" parent="Xq7kVfTsR78el6_ClKw2-73">
          <mxGeometry relative="1" as="geometry">
            <mxPoint x="179" y="59" as="targetPoint" />
            <mxPoint x="112" y="107" as="sourcePoint" />
            <Array as="points">
              <mxPoint x="112" y="98" />
              <mxPoint x="112" y="57" />
            </Array>
          </mxGeometry>
        </mxCell>
        <mxCell id="Xq7kVfTsR78el6_ClKw2-54" value="" style="edgeStyle=orthogonalEdgeStyle;rounded=0;orthogonalLoop=1;jettySize=auto;html=1;fontStyle=0" edge="1" parent="Xq7kVfTsR78el6_ClKw2-73" source="Xq7kVfTsR78el6_ClKw2-52" target="Xq7kVfTsR78el6_ClKw2-53">
          <mxGeometry relative="1" as="geometry" />
        </mxCell>
        <mxCell id="Xq7kVfTsR78el6_ClKw2-52" value="&lt;b style=&quot;font-size: 13px;&quot;&gt;d2c90bb&lt;/b&gt;" style="ellipse;whiteSpace=wrap;html=1;aspect=fixed;fillColor=#d5e8d4;strokeColor=#82b366;fontStyle=0;container=0;" vertex="1" parent="Xq7kVfTsR78el6_ClKw2-73">
          <mxGeometry x="184" y="29" width="69" height="69" as="geometry" />
        </mxCell>
        <mxCell id="Xq7kVfTsR78el6_ClKw2-53" value="&lt;b style=&quot;font-size: 13px;&quot;&gt;4322c8a&lt;/b&gt;" style="ellipse;whiteSpace=wrap;html=1;aspect=fixed;fillColor=#d5e8d4;strokeColor=#82b366;fontStyle=0;container=0;" vertex="1" parent="Xq7kVfTsR78el6_ClKw2-73">
          <mxGeometry x="305" y="29" width="69" height="69" as="geometry" />
        </mxCell>
        <mxCell id="Xq7kVfTsR78el6_ClKw2-65" value="&lt;b&gt;&lt;font style=&quot;font-size: 14px;&quot;&gt;karam-egg-dosa-rebase&lt;/font&gt;&lt;/b&gt;" style="text;html=1;align=center;verticalAlign=middle;resizable=0;points=[];autosize=1;strokeColor=none;fillColor=none;fontStyle=0;container=0;" vertex="1" parent="Xq7kVfTsR78el6_ClKw2-73">
          <mxGeometry x="140" width="176" height="29" as="geometry" />
        </mxCell>
        <mxCell id="Xq7kVfTsR78el6_ClKw2-67" value="&lt;b style=&quot;font-size: 13px;&quot;&gt;298a621&lt;/b&gt;" style="ellipse;whiteSpace=wrap;html=1;aspect=fixed;fillColor=#dae8fc;strokeColor=#6c8ebf;fontStyle=0;container=0;" vertex="1" parent="Xq7kVfTsR78el6_ClKw2-73">
          <mxGeometry x="415" y="219" width="69" height="69" as="geometry" />
        </mxCell>
        <mxCell id="Xq7kVfTsR78el6_ClKw2-68" value="" style="edgeStyle=orthogonalEdgeStyle;rounded=0;orthogonalLoop=1;jettySize=auto;html=1;" edge="1" parent="Xq7kVfTsR78el6_ClKw2-73" source="Xq7kVfTsR78el6_ClKw2-48" target="Xq7kVfTsR78el6_ClKw2-67">
          <mxGeometry relative="1" as="geometry" />
        </mxCell>
        <mxCell id="Xq7kVfTsR78el6_ClKw2-69" value="&lt;span style=&quot;font-size: 13px;&quot;&gt;&lt;b&gt;1f46400&lt;/b&gt;&lt;/span&gt;" style="ellipse;whiteSpace=wrap;html=1;aspect=fixed;fillColor=#dae8fc;strokeColor=#6c8ebf;fontStyle=0;container=0;" vertex="1" parent="Xq7kVfTsR78el6_ClKw2-73">
          <mxGeometry x="528" y="219" width="69" height="69" as="geometry" />
        </mxCell>
        <mxCell id="Xq7kVfTsR78el6_ClKw2-70" value="" style="edgeStyle=orthogonalEdgeStyle;rounded=0;orthogonalLoop=1;jettySize=auto;html=1;" edge="1" parent="Xq7kVfTsR78el6_ClKw2-73" source="Xq7kVfTsR78el6_ClKw2-67" target="Xq7kVfTsR78el6_ClKw2-69">
          <mxGeometry relative="1" as="geometry" />
        </mxCell>
        <mxCell id="Xq7kVfTsR78el6_ClKw2-71" value="&lt;b&gt;&lt;font style=&quot;font-size: 13px;&quot;&gt;merge commit&lt;/font&gt;&lt;/b&gt;" style="text;html=1;align=center;verticalAlign=middle;resizable=0;points=[];autosize=1;strokeColor=none;fillColor=none;" vertex="1" parent="Xq7kVfTsR78el6_ClKw2-73">
          <mxGeometry x="512" y="187.5" width="107" height="28" as="geometry" />
        </mxCell>
      </root>
    </mxGraphModel>
  </diagram>
</mxfile>
